<svg width="16" height="16" viewBox="0 0 16 16" fill="none" xmlns="http://www.w3.org/2000/svg">
<path d="M2.56106 2.76428H1.904C1.72112 2.76428 1.573 2.95151 1.573 3.18267C1.573 3.41382 1.72112 3.60105 1.904 3.60105H2.56106C2.74394 3.60105 2.89206 3.41382 2.89206 3.18267C2.89206 2.95151 2.74394 2.76428 2.56106 2.76428Z" fill="#6D6F71"/>
<path d="M2.56106 12.9268H1.904C1.72112 12.9268 1.573 13.114 1.573 13.3451C1.573 13.5763 1.72112 13.7635 1.904 13.7635H2.56106C2.74394 13.7635 2.89206 13.5763 2.89206 13.3451C2.89206 13.114 2.74394 12.9268 2.56106 12.9268Z" fill="#6D6F71"/>
<path d="M6.36025 2.76428H5.7032C5.52032 2.76428 5.37219 2.95151 5.37219 3.18267C5.37219 3.41382 5.52032 3.60105 5.7032 3.60105H6.36025C6.54313 3.60105 6.69126 3.41382 6.69126 3.18267C6.69126 2.95151 6.54313 2.76428 6.36025 2.76428Z" fill="#6D6F71"/>
<path d="M6.36025 12.9268H5.7032C5.52032 12.9268 5.37219 13.114 5.37219 13.3451C5.37219 13.5763 5.52032 13.7635 5.7032 13.7635H6.36025C6.54313 13.7635 6.69126 13.5763 6.69126 13.3451C6.69126 13.114 6.54313 12.9268 6.36025 12.9268Z" fill="#6D6F71"/>
<path d="M15.8957 12.8087L11.8343 1.4089C11.706 1.04698 11.4735 0.770866 11.1797 0.629647C10.8859 0.488444 10.5674 0.50204 10.281 0.664164L8.70379 1.56161L8.35458 1.76034C8.32148 1.77916 8.29335 1.80531 8.2619 1.82833V1.49049C8.2619 0.668368 7.73312 0 7.08269 0H4.97915C4.64567 0 4.34527 0.177812 4.13095 0.459163C3.91663 0.176752 3.61623 0 3.28275 0H1.17921C0.528783 0 0 0.668368 0 1.49049V14.3767C0 15.1988 0.528783 15.8672 1.17921 15.8672H3.28275C3.61623 15.8672 3.9158 15.6894 4.13095 15.408C4.34527 15.6904 4.64567 15.8672 4.97915 15.8672H7.08269C7.73312 15.8672 8.2619 15.1988 8.2619 14.3767L8.26273 5.11683L11.8276 15.1235C11.9567 15.4854 12.1893 15.7615 12.4822 15.9027C12.6179 15.9676 12.7586 16 12.8993 16C13.0631 16 13.227 15.9561 13.3809 15.8682L15.3073 14.772C15.5937 14.6089 15.8121 14.315 15.9238 13.9447C16.0339 13.5734 16.0248 13.1706 15.8957 12.8087ZM3.28447 15.0303H1.18092C0.895421 15.0303 0.663727 14.7375 0.663727 14.3766V1.49043C0.663727 1.12956 0.895442 0.836709 1.18092 0.836709H3.28447C3.56997 0.836709 3.80166 1.12959 3.80166 1.49043V14.3766C3.80083 14.7364 3.56912 15.0303 3.28447 15.0303ZM7.60078 14.3766C7.60078 14.7375 7.36907 15.0303 7.08358 15.0303H4.98004C4.69454 15.0303 4.46285 14.7375 4.46285 14.3766V1.49043C4.46285 1.12956 4.69456 0.836709 4.98004 0.836709H7.08358C7.36909 0.836709 7.60078 1.12959 7.60078 1.49043V14.3766ZM15.3041 13.6476C15.2552 13.8097 15.1601 13.9373 15.0351 14.0084L13.1087 15.1046C12.9845 15.1757 12.8447 15.181 12.7172 15.1193C12.589 15.0576 12.488 14.9373 12.4317 14.7793L8.36941 3.38058C8.25356 3.0553 8.36858 2.67039 8.62676 2.52395L8.68303 2.49152L10.9214 8.54355C10.9776 8.69626 11.0968 8.78516 11.2218 8.78516C11.2689 8.78516 11.3161 8.77261 11.3616 8.74542C11.5271 8.6471 11.5983 8.39815 11.5213 8.18897L9.28616 2.14766L9.901 1.79726L12.1393 7.84929C12.1956 8.002 12.3148 8.0909 12.4397 8.0909C12.4869 8.0909 12.5341 8.07835 12.5796 8.05116C12.7451 7.95284 12.8163 7.70389 12.7393 7.49471L10.5041 1.4534L10.5513 1.4262C10.6183 1.3875 10.6903 1.36868 10.7615 1.36868C10.8227 1.36868 10.884 1.38227 10.9435 1.41156C11.0718 1.47327 11.1728 1.59356 11.229 1.75149L15.2922 13.1524C15.3485 13.3103 15.3526 13.4861 15.3038 13.6482L15.3041 13.6476Z" fill="#6D6F71"/>
</svg>
