<svg width="14" height="16" viewBox="0 0 14 16" fill="none" xmlns="http://www.w3.org/2000/svg">
<path d="M10.761 0C8.98533 0 7.53912 1.33268 7.53912 2.96895C7.53912 3.01626 7.54768 3.06752 7.55196 3.11878C7.36797 3.10695 7.18399 3.09906 7 3.09906C5.12592 3.09906 3.42726 3.78512 2.16931 4.89305C2.15648 4.90094 2.13936 4.90882 2.12653 4.92065C2.11797 4.92854 2.11797 4.93642 2.11369 4.94036C0.812958 6.11138 0 7.74372 0 9.54953C0 11.3553 0.812958 12.9877 2.11369 14.1587C2.11797 14.1666 2.12225 14.1745 2.12653 14.1784C2.13936 14.1902 2.15648 14.1942 2.16931 14.206C3.42726 15.3139 5.12592 16 7 16C8.87408 16 10.5727 15.3139 11.8307 14.206C11.8435 14.1981 11.8606 14.1902 11.8735 14.1784C11.8777 14.1705 11.882 14.1626 11.8863 14.1587C13.187 12.9877 14 11.3553 14 9.54953C14 8.27994 13.5978 7.06161 12.8447 6.00887C13.4566 5.04682 13.9829 3.93889 13.9829 2.97684C13.9829 1.33268 12.5367 0 10.761 0ZM10.761 0.638738C12.1559 0.638738 13.2855 1.68359 13.2855 2.96501C13.2855 4.5934 11.4542 6.84081 10.761 7.63726C10.0678 6.84475 8.23655 4.59734 8.23655 2.96501C8.23227 1.68359 9.36614 0.638738 10.761 0.638738ZM13.2855 9.86496C13.1999 11.2686 12.5752 12.5421 11.5954 13.5081C11.1247 13.1296 10.6112 12.8142 10.0593 12.5658C10.2818 11.7575 10.4187 10.8428 10.4401 9.8689H13.2855V9.86496ZM0.714548 9.86496H3.5599C3.58557 10.8428 3.71821 11.7575 3.94071 12.5619C3.38875 12.8103 2.87531 13.1257 2.40465 13.5042C1.42054 12.5382 0.795844 11.2686 0.714548 9.86496ZM2.40465 5.58305C2.87531 5.96156 3.38875 6.27698 3.94071 6.52538C3.71821 7.33366 3.5813 8.2484 3.5599 9.22228H0.714548C0.795844 7.81863 1.42054 6.54904 2.40465 5.58305ZM7.34658 12.5619C7.99266 12.5934 8.62592 12.7156 9.22066 12.9207C8.77995 14.1902 8.10819 15.0813 7.34658 15.2942V12.5619ZM6.65342 11.9231C5.93888 11.9547 5.24572 12.0848 4.59108 12.3056C4.39425 11.5683 4.27873 10.7363 4.25306 9.86101H6.65342V11.9231ZM6.65342 12.5619V15.2982C5.89181 15.0853 5.22005 14.1902 4.77934 12.9246C5.37408 12.7156 6.00306 12.5973 6.65342 12.5619ZM4.25306 9.22228C4.27873 8.34697 4.39425 7.51503 4.59108 6.77772C5.25 6.99852 5.94315 7.12863 6.6577 7.16018V9.22228H4.25306ZM4.77934 6.16264C5.22005 4.89305 5.89181 4.00197 6.65342 3.78906V6.52538C6.00306 6.4899 5.37408 6.37161 4.77934 6.16264ZM8.86125 6.27698C8.36919 6.41498 7.8643 6.49778 7.35086 6.52538V3.78906C7.46638 3.82454 7.58191 3.87186 7.69743 3.93889C7.9242 4.73534 8.37775 5.55939 8.86125 6.27698ZM4.13325 5.90242C3.69254 5.69739 3.28178 5.43716 2.90098 5.13356C3.57702 4.60128 4.37286 4.19911 5.24572 3.96254C4.80073 4.45145 4.41993 5.10991 4.13325 5.90242ZM4.13325 13.1809C4.41993 13.9773 4.80073 14.6358 5.24572 15.1168C4.37286 14.8842 3.57702 14.482 2.90098 13.9458C3.28606 13.6501 3.69682 13.3898 4.13325 13.1809ZM9.86675 13.1809C10.3075 13.3859 10.7182 13.6461 11.099 13.9497C10.423 14.482 9.62714 14.8842 8.75428 15.1207C9.19499 14.6358 9.58007 13.9773 9.86675 13.1809ZM9.4132 12.3095C8.75428 12.0887 8.06112 11.9586 7.34658 11.9271V9.86496H9.74694C9.72555 10.7403 9.60575 11.5683 9.4132 12.3095ZM7.34658 9.22228V7.16412C7.99694 7.13652 8.63447 7.02218 9.24633 6.83292C9.33619 6.95515 9.42176 7.06949 9.50733 7.17989C9.64853 7.83046 9.72983 8.51651 9.74694 9.22622H7.34658V9.22228ZM13.2897 9.22228H10.4401C10.4315 8.88319 10.4144 8.54805 10.3759 8.21686C10.4358 8.28388 10.4829 8.33514 10.4957 8.34697C10.5599 8.41794 10.6583 8.45737 10.7567 8.45737C10.8551 8.45737 10.9535 8.41794 11.0177 8.34697C11.0733 8.28783 11.7451 7.57023 12.434 6.6003C12.9474 7.40069 13.2341 8.29571 13.2897 9.22228Z" fill="#6D6F71"/>
<path d="M12.3442 2.96898C12.3442 2.16464 11.634 1.51013 10.7611 1.51013C9.88825 1.51013 9.17798 2.16464 9.17798 2.96898C9.17798 3.77332 9.88825 4.42783 10.7611 4.42783C11.634 4.42783 12.3442 3.77332 12.3442 2.96898ZM9.87113 2.96898C9.87113 2.5195 10.2691 2.14887 10.7611 2.14887C11.2489 2.14887 11.6511 2.51555 11.6511 2.96898C11.6511 3.41846 11.2532 3.78909 10.7611 3.78909C10.2691 3.78514 9.87113 3.41846 9.87113 2.96898Z" fill="#6D6F71"/>
</svg>
