<svg width="16" height="16" viewBox="0 0 16 16" fill="none" xmlns="http://www.w3.org/2000/svg">
<path fill-rule="evenodd" clip-rule="evenodd" d="M9.67802 0.072924L6.82897 1.37613C6.05517 1.73151 5.91714 1.79125 5.49936 2.21272C2.74366 5.3314 1.43795 8.07282 0.121714 12.2195C-0.654937 14.6646 2.44284 15.9876 4.939 15.9899C6.74445 15.9911 7.23195 15.8048 8.66402 15.3961C8.82567 15.3507 8.91901 15.2284 8.78383 15.0995C8.44318 14.7702 8.34215 14.6303 8.08146 14.1834C7.2957 14.3854 6.32183 14.5042 5.46663 14.4026C4.79813 14.3243 4.20219 14.1121 3.8197 13.7017C3.72493 13.6001 3.9028 13.4875 4.00212 13.55C4.61257 13.773 5.17009 13.9054 5.73927 13.9517C6.71457 14.0326 7.72373 13.8649 9.09375 13.4729C10.8366 12.9731 12.5191 14.0891 13.2127 15.4257C15.5307 14.916 16.5671 10.369 15.6909 9.95132C14.0974 9.24785 11.7126 9.80432 10.3178 11.731C10.1046 12.0264 9.67916 11.9246 9.87154 11.621C10.583 10.5012 9.52776 10.1399 8.29462 10.1583C6.57682 10.1853 5.04572 10.9579 4.6914 11.9013C4.58326 12.1904 4.17715 12.1588 4.25427 11.8402C4.52833 10.7058 5.9752 10.6435 5.86705 9.5115C5.70227 7.78306 5.76147 6.63531 6.82129 4.96449C6.97981 4.69637 6.47153 4.2074 6.38558 3.9588C6.31016 3.7396 6.40635 3.53522 6.56203 3.72361C6.8156 4.02866 7.39958 4.39132 7.88253 4.43883L8.82965 4.53315C9.40026 4.58959 9.54113 4.62134 9.98424 4.3838L10.8676 3.91223C10.961 3.86214 11.0813 3.85837 11.1792 3.90118C11.4026 4.00161 11.5603 4.04535 11.6593 4.04794C11.7587 4.04794 11.8404 4.02842 12.0077 3.89483L12.6512 3.37905C12.9016 3.17702 12.9195 2.85245 12.6435 2.5634L10.3906 0.211453C10.1564 -0.0324431 9.93871 -0.0460843 9.67802 0.072924Z" fill="#6D6F71"/>
<path fill-rule="evenodd" clip-rule="evenodd" d="M9.8661 13.7175C9.31599 13.7532 8.99895 13.9613 8.42834 14.0912C9.49073 15.5929 10.9791 16.4932 12.7402 15.7131C12.0125 14.5726 11.0534 13.6417 9.8661 13.7175Z" fill="#6D6F71"/>
</svg>
