<svg width="16" height="14" viewBox="0 0 16 14" fill="none" xmlns="http://www.w3.org/2000/svg">
<path d="M15.8441 1.94052C14.7461 0.689138 13.2868 0 11.7334 0C10.352 0 9.04468 0.545533 8.00003 1.54617C6.95536 0.545533 5.64806 0 4.26669 0C2.71401 0 1.25407 0.689138 0.156 1.94052C0.0559993 2.05449 0 2.20948 0 2.37055V13.3921C0 13.6383 0.13 13.8593 0.329336 13.9536C0.52801 14.0478 0.758001 13.9961 0.910662 13.8214C2.54267 11.9621 5.09593 11.7045 6.98334 13.209C7.59134 13.6937 8.40868 13.6945 9.01666 13.209C10.9041 11.7038 13.4579 11.9614 15.0893 13.8206C15.1913 13.9369 15.328 13.9984 15.4667 13.9984C15.5353 13.9984 15.6047 13.9832 15.6707 13.952C15.87 13.8578 16 13.636 16 13.3906V2.37059C16 2.20951 15.9441 2.05448 15.8441 1.94052ZM4.26873 11.017C3.14673 11.017 2.03009 11.3877 1.06668 12.1141V2.63035C1.94334 1.71633 3.07133 1.21639 4.26669 1.21639C5.46204 1.21639 6.58998 1.72317 7.46669 2.63948V12.1201C6.48935 11.3831 5.37739 11.017 4.26873 11.017ZM14.9334 12.1141C13.018 10.6705 10.5006 10.6363 8.53336 12.1202V2.63877C9.41003 1.72246 10.536 1.21568 11.7334 1.21568C12.9308 1.21568 14.0567 1.71562 14.9334 2.62964V12.1141Z" fill="#6D6F71"/>
</svg>
