<svg width="16" height="16" viewBox="0 0 16 16" fill="none" xmlns="http://www.w3.org/2000/svg">
<path d="M15.8324 15.0249L11.1132 10.3053C12.0232 9.21529 12.5718 7.8138 12.5718 6.28597C12.5718 2.82014 9.75182 0 6.28624 0C2.81993 0 0 2.82014 0 6.28597C0 9.7518 2.81993 12.5719 6.28551 12.5719C7.81261 12.5719 9.21406 12.0226 10.3046 11.1133L15.0238 15.8329C15.1352 15.9443 15.2816 16 15.4281 16C15.5745 16 15.7209 15.9443 15.8323 15.8329C16.0559 15.6093 16.056 15.2485 15.8324 15.0249ZM1.14289 6.28597C1.14289 3.45011 3.44993 1.1429 6.28558 1.1429C9.12124 1.1429 11.4283 3.45011 11.4283 6.28597C11.4283 9.12183 9.12124 11.429 6.28558 11.429C3.44993 11.429 1.14289 9.12183 1.14289 6.28597Z" fill="#6D6F71"/>
</svg>
