<svg width="16" height="12" viewBox="0 0 16 12" fill="none" xmlns="http://www.w3.org/2000/svg">
<path d="M5.59211 3.59368L7.9396 1.94366H7.94098L8.11804 1.81968C8.98814 1.20754 9.77524 1.04535 10.5229 1.32295L10.5222 1.32373C11.3646 1.65201 12.2914 1.55767 13.0682 1.06406L13.6526 0.697563H13.6519C13.8041 0.60243 13.8587 0.387206 13.7744 0.216426C13.69 0.0456527 13.4991 -0.0159577 13.3476 0.0784032L12.7632 0.444896C12.1407 0.845703 11.3944 0.920563 10.7186 0.651548C9.79597 0.308432 8.80972 0.499489 7.78541 1.21924L7.77435 1.22704C6.95406 0.648446 6.21953 0.720171 5.50778 0.789581C4.76426 0.862101 3.99376 0.937741 2.98872 0.29988L2.58688 0.0448986V0.0456784C2.4361 -0.0502356 2.24451 0.0098075 2.15875 0.179802C2.07367 0.349795 2.12693 0.565798 2.27771 0.661718L2.67886 0.915921C3.85328 1.66062 4.76005 1.57173 5.55966 1.49374C6.14479 1.43681 6.63309 1.38924 7.16083 1.65671L5.25954 2.99404L5.26023 2.99482C5.0147 3.1539 4.85492 3.43853 4.83278 3.75667C4.82172 4.11538 4.96212 4.45925 5.21042 4.68383C5.49815 4.97469 5.86888 5.13766 6.2548 5.14313C6.72996 5.14313 7.17676 4.89671 7.59176 4.66824C8.02611 4.42885 8.475 4.18166 8.96537 4.17854H8.97574C9.51038 4.17854 9.94751 4.46395 10.4102 4.76572L12.8165 6.33154H12.8158C12.9292 6.41264 13.0129 6.53584 13.0523 6.68011C13.08 6.81189 13.062 6.9507 13.0025 7.06844C12.8718 7.32186 12.5841 7.40842 12.3579 7.2626L12.1207 7.10821L10.8778 6.29879C10.7284 6.20989 10.5438 6.26993 10.4594 6.43447C10.375 6.599 10.4213 6.80955 10.5645 6.91091L11.8074 7.71956C12.0329 7.86694 12.1103 8.19211 11.9796 8.44709C11.8496 8.70129 11.5605 8.78863 11.335 8.64126L11.0978 8.48686L9.77464 7.62598C9.70271 7.57685 9.61625 7.56281 9.53532 7.58699C9.45371 7.61116 9.38454 7.67043 9.34236 7.7523C9.30017 7.83418 9.2891 7.93165 9.31193 8.02289C9.33406 8.11413 9.38801 8.19211 9.46132 8.23811L10.7851 9.09977H10.7845C10.9747 9.23857 11.0348 9.52086 10.9221 9.74153C10.8087 9.96299 10.561 10.0449 10.3598 9.9279L9.91712 9.64016L9.21371 9.18242V9.18164C8.99583 8.62408 8.44737 8.33167 7.92656 8.49465C7.85324 8.1757 7.66927 7.9028 7.41681 7.73824C7.16367 7.57371 6.86212 7.53081 6.5806 7.61894C6.5806 7.61582 6.57922 7.6127 6.57853 7.6088C6.50383 7.29221 6.31986 7.0224 6.06741 6.85943C5.81495 6.69723 5.51478 6.65513 5.23467 6.74324C5.23467 6.74012 5.23328 6.737 5.23259 6.7331H5.23328C5.11985 6.25119 4.76019 5.89406 4.3217 5.82934C3.88388 5.76383 3.45369 6.00401 3.23443 6.43602L3.02003 6.85555L2.60643 6.35415C2.58153 6.32374 2.55248 6.29879 2.51997 6.28007L0.457559 5.08076C0.303323 4.99187 0.114502 5.05971 0.034966 5.2336C-0.0445737 5.40671 0.0162912 5.62038 0.169837 5.71005L2.18462 6.88051L2.69229 7.49653L2.67639 7.52773C2.48619 7.89891 2.48134 8.35507 2.66325 8.73093C2.84514 9.10756 3.1882 9.34931 3.56792 9.36957C3.47801 9.7392 3.54579 10.1345 3.75122 10.4394C3.95665 10.7443 4.27688 10.9237 4.61647 10.9245C4.79698 10.9245 4.97542 10.8738 5.1352 10.7787C5.31227 11.213 5.69752 11.4914 6.12149 11.4914C6.31861 11.4914 6.51227 11.4313 6.68173 11.3175C6.85879 11.7206 7.21775 11.9819 7.61614 11.999C8.01453 12.017 8.3901 11.7869 8.59412 11.4009L8.77533 11.5156C8.97729 11.6551 9.20761 11.7315 9.44414 11.737C9.79896 11.7394 10.1268 11.5257 10.3032 11.1787C10.3793 11.0282 10.4249 10.8613 10.4353 10.6882C10.5715 10.7085 10.7106 10.6976 10.844 10.657C11.3351 10.5104 11.6616 9.98795 11.6194 9.41716C11.9943 9.39845 12.3352 9.16607 12.5234 8.79956C12.6423 8.56953 12.6907 8.30128 12.6624 8.03693C12.7357 8.03225 12.8083 8.01822 12.8796 7.99716C13.3658 7.85212 13.7012 7.35149 13.6923 6.7846L15.8122 5.67808C15.8897 5.63987 15.9499 5.56813 15.9796 5.47923C16.0093 5.39034 16.0066 5.29208 15.9713 5.20552C15.9353 5.11975 15.871 5.05347 15.7915 5.02149C15.7119 4.98952 15.6248 4.99498 15.5494 5.03631L13.4965 6.10696C13.4073 5.9666 13.2967 5.84417 13.1701 5.7467C13.1618 5.73968 13.1521 5.73344 13.1438 5.72642L10.7825 4.18947L10.7237 4.15126C10.2063 3.81361 9.67102 3.46582 8.96139 3.46972C8.32784 3.47361 7.79043 3.76915 7.31595 4.03116C6.56413 4.44522 6.14706 4.63784 5.61104 4.13721C5.51836 4.0569 5.46234 3.93447 5.45888 3.80346C5.46026 3.77305 5.4651 3.68259 5.59237 3.59369L5.59211 3.59368ZM3.17416 8.2763C3.14165 8.14295 3.15756 8.00025 3.21912 7.88016L3.77796 6.79003C3.90937 6.54986 4.18672 6.47108 4.4032 6.61223C4.62038 6.75337 4.69854 7.06373 4.57957 7.31248L4.02142 8.40261C3.92804 8.58586 3.74545 8.68724 3.56008 8.65995C3.37403 8.63188 3.22117 8.4806 3.17345 8.27629L3.17416 8.2763ZM4.73935 10.1985C4.55814 10.2523 4.36585 10.179 4.25243 10.0113C4.13831 9.84367 4.12447 9.61596 4.21785 9.43273L5.12322 7.66494C5.20621 7.50353 5.35975 7.40371 5.52506 7.40449C5.69036 7.40527 5.84253 7.50509 5.92483 7.6665C6.00783 7.82792 6.00783 8.02676 5.92552 8.18818L5.02015 9.95596C4.95859 10.0753 4.85761 10.1626 4.73935 10.1985ZM5.89163 10.7139C5.67099 10.5689 5.5956 10.2499 5.72218 10.0004L6.46916 8.5422V8.54142C6.60058 8.30203 6.87793 8.22325 7.09511 8.36441C7.31161 8.50555 7.38976 8.81512 7.27079 9.06387L6.71264 10.154L6.52451 10.5221C6.39587 10.7716 6.11365 10.8574 5.89163 10.7139ZM7.42571 11.2215C7.20438 11.0773 7.12899 10.7584 7.25626 10.508L7.81441 9.41714V9.41792C7.94651 9.17775 8.22386 9.09897 8.44036 9.24012C8.65754 9.38127 8.7357 9.69162 8.61673 9.94037L8.05858 11.0297C7.93062 11.28 7.64773 11.3658 7.42571 11.2215ZM9.75866 10.8254C9.66321 11.0118 9.43635 11.1303 9.08568 10.9018L9.08222 10.8995L8.90655 10.788L9.15969 10.2936H9.16038C9.20257 10.2102 9.23646 10.122 9.26136 10.0292L9.60304 10.2515C9.69503 10.2991 9.76488 10.3895 9.79462 10.4987C9.82436 10.6086 9.81122 10.7272 9.75866 10.8254Z" fill="#6D6F71"/>
</svg>
