<svg width="16" height="16" viewBox="0 0 16 16" fill="none" xmlns="http://www.w3.org/2000/svg">
<path d="M13.2689 3.66855C12.8724 2.59254 12.1546 1.66383 11.2124 1.0078C10.2702 0.351762 9.14892 0 8 0C6.85108 0 5.72982 0.351762 4.7876 1.0078C3.84538 1.66383 3.12758 2.59254 2.7311 3.66855C1.74912 4.13845 0.95594 4.92686 0.481214 5.90488C0.00648895 6.8829 -0.121698 7.99269 0.117608 9.05283C0.356914 10.113 0.949557 11.0607 1.79866 11.7412C2.64776 12.4217 3.70309 12.7947 4.79215 12.7991C5.63849 12.799 6.46932 12.5724 7.19804 12.1429V16H8.80196V12.1429C9.53068 12.5724 10.3615 12.799 11.2079 12.7991C12.2969 12.7947 13.3522 12.4217 14.2013 11.7412C15.0504 11.0607 15.6431 10.113 15.8824 9.05283C16.1217 7.99269 15.9935 6.8829 15.5188 5.90488C15.0441 4.92686 14.2509 4.13845 13.2689 3.66855ZM11.2079 11.1987C10.4381 11.1956 9.69615 10.9109 9.12275 10.3984L11.7692 7.75769L10.6385 6.62938L8.80196 8.46989V6.39731H7.19804V8.46989L5.36154 6.62938L4.22275 7.7657L6.87725 10.3984C6.30385 10.9109 5.56193 11.1956 4.79215 11.1987C3.94137 11.1987 3.12544 10.8614 2.52385 10.2611C1.92226 9.66085 1.58429 8.84669 1.58429 7.99776C1.58645 7.34879 1.78625 6.71579 2.1572 6.18272C2.52816 5.64965 3.05274 5.24169 3.66138 5.01293L4.0383 4.86889L4.15058 4.48478C4.39351 3.65368 4.90003 2.92363 5.59411 2.4042C6.28819 1.88476 7.1324 1.60397 8 1.60397C8.8676 1.60397 9.71181 1.88476 10.4059 2.4042C11.1 2.92363 11.6065 3.65368 11.8494 4.48478L11.9617 4.86889L12.3386 5.01293C12.9473 5.24169 13.4718 5.64965 13.8428 6.18272C14.2137 6.71579 14.4135 7.34879 14.4157 7.99776C14.4157 8.84669 14.0777 9.66085 13.4761 10.2611C12.8746 10.8614 12.0586 11.1987 11.2079 11.1987Z" fill="#6D6F71"/>
</svg>
