<svg width="16" height="16" viewBox="0 0 16 16" fill="none" xmlns="http://www.w3.org/2000/svg">
<path d="M15.506 7.38884H14.694V6.15404C14.694 6.15154 14.692 6.14905 14.692 6.14655C14.688 5.00655 14.058 4.05363 13.21 3.77923V0.616152C13.21 0.276894 12.99 0 12.716 0H1.976C1.464 0 0.956 0.261927 0.578 0.720923C0.21 1.17992 0 1.81353 0 2.45713V13.5429C0 14.8974 0.886 16 1.976 16H12.72C13.248 16 13.744 15.7431 14.116 15.2791C14.49 14.8151 14.694 14.1964 14.694 13.5429V13.5404V12.3131H15.506C15.778 12.3131 16 12.0362 16 11.6969V8.00499C16 7.66324 15.78 7.38884 15.506 7.38884ZM1.272 1.599C1.462 1.36701 1.72 1.2323 1.976 1.2323H12.226V3.69192H1.976C1.43 3.69192 0.988 3.13814 0.988 2.45962C0.988 2.13782 1.092 1.82102 1.272 1.599ZM13.708 13.5429C13.708 13.8672 13.606 14.174 13.418 14.4085C13.232 14.6405 12.984 14.7702 12.72 14.7702H1.976C1.43 14.7702 0.988 14.2214 0.988 13.5454V4.57749C1.28 4.78952 1.614 4.92173 1.976 4.92173H12.72C13.264 4.92173 13.708 5.47552 13.708 6.15404V6.15653V7.38634H11.624C11.096 7.38634 10.602 7.64328 10.234 8.10228C9.86 8.55878 9.654 9.17992 9.654 9.84596C9.654 11.2055 10.538 12.3106 11.626 12.3106H13.71V13.5379C13.708 13.5404 13.708 13.5404 13.708 13.5429ZM15.012 11.0808H11.624C11.082 11.0808 10.64 10.527 10.64 9.84596C10.64 9.51419 10.74 9.20736 10.928 8.97786C11.116 8.74337 11.358 8.61865 11.624 8.61865H15.014V11.0808H15.012Z" fill="#6D6F71"/>
</svg>
